<svg width="24" height="24" viewBox="0 0 24 24" fill="none" xmlns="http://www.w3.org/2000/svg">
<g id="Sparkle">
<path id="Vector" d="M18.6562 11.7478L13.9799 10.0238L12.2521 5.34375C12.12 4.98542 11.8812 4.67621 11.5679 4.45781C11.2546 4.2394 10.8819 4.12231 10.4999 4.12231C10.118 4.12231 9.7453 4.2394 9.43199 4.45781C9.11869 4.67621 8.87988 4.98542 8.74775 5.34375L7.02369 10.0238L2.34369 11.7478C1.98536 11.8799 1.67615 12.1187 1.45775 12.432C1.23935 12.7454 1.12225 13.1181 1.12225 13.5C1.12225 13.8819 1.23935 14.2546 1.45775 14.568C1.67615 14.8813 1.98536 15.1201 2.34369 15.2522L7.01994 16.9762L8.74775 21.6562C8.87988 22.0146 9.11869 22.3238 9.43199 22.5422C9.7453 22.7606 10.118 22.8777 10.4999 22.8777C10.8819 22.8777 11.2546 22.7606 11.5679 22.5422C11.8812 22.3238 12.12 22.0146 12.2521 21.6562L13.9762 16.98L18.6562 15.2522C19.0145 15.1201 19.3237 14.8813 19.5421 14.568C19.7605 14.2546 19.8776 13.8819 19.8776 13.5C19.8776 13.1181 19.7605 12.7454 19.5421 12.432C19.3237 12.1187 19.0145 11.8799 18.6562 11.7478ZM12.7143 15.0441C12.5616 15.1003 12.4229 15.1891 12.3079 15.3042C12.1928 15.4192 12.104 15.5579 12.0478 15.7106L10.4999 19.9012L8.95588 15.7106C8.8996 15.5579 8.81086 15.4192 8.69578 15.3042C8.5807 15.1891 8.44202 15.1003 8.28932 15.0441L4.09869 13.5L8.28932 11.9559C8.44202 11.8997 8.5807 11.8109 8.69578 11.6958C8.81086 11.5808 8.8996 11.4421 8.95588 11.2894L10.4999 7.09875L12.044 11.2894C12.1003 11.4421 12.189 11.5808 12.3041 11.6958C12.4192 11.8109 12.5579 11.8997 12.7106 11.9559L16.9012 13.5L12.7143 15.0441ZM13.1249 3.75C13.1249 3.45163 13.2435 3.16548 13.4544 2.9545C13.6654 2.74353 13.9516 2.625 14.2499 2.625H15.3749V1.5C15.3749 1.20163 15.4935 0.915483 15.7044 0.704505C15.9154 0.493526 16.2016 0.375 16.4999 0.375C16.7983 0.375 17.0845 0.493526 17.2954 0.704505C17.5064 0.915483 17.6249 1.20163 17.6249 1.5V2.625H18.7499C19.0483 2.625 19.3345 2.74353 19.5454 2.9545C19.7564 3.16548 19.8749 3.45163 19.8749 3.75C19.8749 4.04837 19.7564 4.33452 19.5454 4.5455C19.3345 4.75647 19.0483 4.875 18.7499 4.875H17.6249V6C17.6249 6.29837 17.5064 6.58452 17.2954 6.7955C17.0845 7.00647 16.7983 7.125 16.4999 7.125C16.2016 7.125 15.9154 7.00647 15.7044 6.7955C15.4935 6.58452 15.3749 6.29837 15.3749 6V4.875H14.2499C13.9516 4.875 13.6654 4.75647 13.4544 4.5455C13.2435 4.33452 13.1249 4.04837 13.1249 3.75ZM23.6249 8.25C23.6249 8.54837 23.5064 8.83452 23.2954 9.0455C23.0845 9.25647 22.7983 9.375 22.4999 9.375H22.1249V9.75C22.1249 10.0484 22.0064 10.3345 21.7954 10.5455C21.5845 10.7565 21.2983 10.875 20.9999 10.875C20.7016 10.875 20.4154 10.7565 20.2044 10.5455C19.9935 10.3345 19.8749 10.0484 19.8749 9.75V9.375H19.4999C19.2016 9.375 18.9154 9.25647 18.7044 9.0455C18.4935 8.83452 18.3749 8.54837 18.3749 8.25C18.3749 7.95163 18.4935 7.66548 18.7044 7.4545C18.9154 7.24353 19.2016 7.125 19.4999 7.125H19.8749V6.75C19.8749 6.45163 19.9935 6.16548 20.2044 5.9545C20.4154 5.74353 20.7016 5.625 20.9999 5.625C21.2983 5.625 21.5845 5.74353 21.7954 5.9545C22.0064 6.16548 22.1249 6.45163 22.1249 6.75V7.125H22.4999C22.7983 7.125 23.0845 7.24353 23.2954 7.4545C23.5064 7.66548 23.6249 7.95163 23.6249 8.25Z" fill="#4F46E5"/>
</g>
</svg>
