<svg xmlns="http://www.w3.org/2000/svg" id="Layer_2" data-name="Layer 2" viewBox="0 0 332 353.89"><defs><style>.cls-1{fill:#00d846}</style></defs><g id="Layer_1-2" data-name="Layer 1"><path d="M332 187.67v161.8h-77.36v-63.22h-4.42c-7.96 34.48-33.15 67.64-102.56 67.64C54.38 353.89 0 293.77 0 201.37q0-7.14.51-14.01H88.8q-.39 6.54-.39 14.01c0 58.8 16.36 72.94 76.48 72.94s79.13-3.1 83.11-25.64h-91.07v-61.01h175.06ZM0 166.22V4.42h77.36v63.22h4.42C89.74 33.15 114.94 0 184.35 0 277.63 0 332 60.12 332 152.52q0 7.14-.51 14.01H243.2q.39-6.54.39-14.01c0-58.8-16.36-72.94-76.48-72.94S87.98 82.68 84 105.22h91.07v61.01H0Z" class="cls-1"/></g></svg>