<svg width="49" height="49" viewBox="0 0 49 49" fill="none" xmlns="http://www.w3.org/2000/svg">
<mask id="mask0_12_93" style="mask-type:luminance" maskUnits="userSpaceOnUse" x="0" y="0" width="49" height="49">
<path d="M48.0189 22.1342L26.8658 0.981113C25.5577 -0.327038 23.4423 -0.327038 22.1342 0.981113L0.981113 22.1342C-0.327038 23.4423 -0.327038 25.5577 0.981113 26.8658L22.1342 48.0189C23.4423 49.327 25.5577 49.327 26.8658 48.0189L48.0189 26.8658C49.327 25.5577 49.327 23.4423 48.0189 22.1342ZM24.5 30.0666L18.9334 24.5L24.5 18.9334L30.0666 24.5L24.5 30.0666Z" fill="white"/>
</mask>
<g mask="url(#mask0_12_93)">
<path d="M47.9625 22.1613L40.1939 14.3927L34.645 8.84375L24.5181 18.9706L30.0671 24.5196L24.5181 30.0686L14.3912 40.1954L22.1598 47.964C23.4638 49.268 25.5724 49.268 26.8764 47.964L34.645 40.1954L40.1939 34.6465L47.9625 26.8779C49.2665 25.5739 49.2665 23.4653 47.9625 22.1613Z" fill="#4285F4"/>
<path d="M34.645 8.84375L26.8764 1.0752C25.5724 -0.228811 23.4638 -0.228811 22.1598 1.0752L14.3912 8.84375L8.84225 14.3927L1.07369 22.1613C-0.230318 23.4653 -0.230318 25.5739 1.07369 26.8779L8.84225 34.6465L14.3912 40.1954L24.5181 30.0686L18.9691 24.5196L24.5181 18.9706L34.645 8.84375Z" fill="#4FC3F7"/>
<mask id="mask1_12_93" style="mask-type:luminance" maskUnits="userSpaceOnUse" x="0" y="0" width="49" height="49">
<path d="M47.9625 22.1613L26.8764 1.0752C25.5724 -0.228811 23.4638 -0.228811 22.1598 1.0752L1.07369 22.1613C-0.230318 23.4653 -0.230318 25.5739 1.07369 26.8779L22.1598 47.964C23.4638 49.268 25.5724 49.268 26.8764 47.964L47.9625 26.8779C49.2665 25.5739 49.2665 23.4653 47.9625 22.1613ZM24.5181 30.0686L18.9691 24.5196L24.5181 18.9706L30.0671 24.5196L24.5181 30.0686Z" fill="white"/>
</mask>
<g mask="url(#mask1_12_93)">
<path opacity="0.2" d="M22.1598 1.35264C23.4638 0.0486317 25.5724 0.0486317 26.8764 1.35264L47.9625 22.4387C48.5729 23.0491 48.9058 23.8537 48.9336 24.6583C48.9613 23.7705 48.6561 22.8549 47.9625 22.1613L26.8764 1.07519C25.5724 -0.228817 23.4638 -0.228817 22.1598 1.07519L1.0737 22.1613C0.380075 22.8549 0.074882 23.7705 0.102627 24.6583C0.130372 23.8537 0.46331 23.0491 1.0737 22.4387L22.1598 1.35264Z" fill="white"/>
</g>
<mask id="mask2_12_93" style="mask-type:luminance" maskUnits="userSpaceOnUse" x="0" y="0" width="49" height="49">
<path d="M47.9625 22.1613L26.8764 1.0752C25.5724 -0.228811 23.4638 -0.228811 22.1598 1.0752L1.07369 22.1613C-0.230318 23.4653 -0.230318 25.5739 1.07369 26.8779L22.1598 47.964C23.4638 49.268 25.5724 49.268 26.8764 47.964L47.9625 26.8779C49.2665 25.5739 49.2665 23.4653 47.9625 22.1613ZM24.5181 30.0686L18.9691 24.5196L24.5181 18.9706L30.0671 24.5196L24.5181 30.0686Z" fill="white"/>
</mask>
<g mask="url(#mask2_12_93)">
<path opacity="0.2" d="M47.9625 26.6005L26.8764 47.6865C25.5724 48.9905 23.4638 48.9905 22.1598 47.6865L1.0737 26.6005C0.46331 25.9901 0.130372 25.1855 0.102627 24.3809C0.074882 25.2687 0.380075 26.1843 1.0737 26.8779L22.1598 47.964C23.4638 49.268 25.5724 49.268 26.8764 47.964L47.9625 26.8779C48.6561 26.1843 48.9613 25.2964 48.9336 24.3809C48.9058 25.1855 48.5729 25.9901 47.9625 26.6005Z" fill="#1A237E"/>
</g>
<mask id="mask3_12_93" style="mask-type:luminance" maskUnits="userSpaceOnUse" x="0" y="0" width="49" height="49">
<path d="M47.9625 22.1613L26.8764 1.0752C25.5724 -0.228811 23.4638 -0.228811 22.1598 1.0752L1.07369 22.1613C-0.230318 23.4653 -0.230318 25.5739 1.07369 26.8779L22.1598 47.964C23.4638 49.268 25.5724 49.268 26.8764 47.964L47.9625 26.8779C49.2665 25.5739 49.2665 23.4653 47.9625 22.1613ZM24.5181 30.0686L18.9691 24.5196L24.5181 18.9706L30.0671 24.5196L24.5181 30.0686Z" fill="white"/>
</mask>
<g mask="url(#mask3_12_93)">
<path d="M24.5181 30.0686L14.3912 40.1954L22.1598 47.964C23.4638 49.268 25.5724 49.268 26.8764 47.964L34.645 40.1954L24.5181 30.0686Z" fill="url(#paint0_linear_12_93)"/>
</g>
<mask id="mask4_12_93" style="mask-type:luminance" maskUnits="userSpaceOnUse" x="0" y="0" width="49" height="49">
<path d="M47.9625 22.1613L26.8764 1.0752C25.5724 -0.228811 23.4638 -0.228811 22.1598 1.0752L1.07369 22.1613C-0.230318 23.4653 -0.230318 25.5739 1.07369 26.8779L22.1598 47.964C23.4638 49.268 25.5724 49.268 26.8764 47.964L47.9625 26.8779C49.2665 25.5739 49.2665 23.4653 47.9625 22.1613ZM24.5181 30.0686L18.9691 24.5196L24.5181 18.9706L30.0671 24.5196L24.5181 30.0686Z" fill="white"/>
</mask>
<g mask="url(#mask4_12_93)">
<path d="M47.9625 22.1613L26.8764 1.0752C25.5724 -0.228811 23.4638 -0.228811 22.1598 1.0752L1.07369 22.1613C-0.230318 23.4653 -0.230318 25.5739 1.07369 26.8779L22.1598 47.964C23.4638 49.268 25.5724 49.268 26.8764 47.964L47.9625 26.8779C49.2665 25.5739 49.2665 23.4653 47.9625 22.1613ZM24.5181 30.0686L18.9691 24.5196L24.5181 18.9706L30.0671 24.5196L24.5181 30.0686Z" fill="url(#paint1_linear_12_93)"/>
</g>
<mask id="mask5_12_93" style="mask-type:luminance" maskUnits="userSpaceOnUse" x="0" y="0" width="49" height="49">
<path d="M47.9625 22.1613L26.8764 1.0752C25.5724 -0.228811 23.4638 -0.228811 22.1598 1.0752L1.07369 22.1613C-0.230318 23.4653 -0.230318 25.5739 1.07369 26.8779L22.1598 47.964C23.4638 49.268 25.5724 49.268 26.8764 47.964L47.9625 26.8779C49.2665 25.5739 49.2665 23.4653 47.9625 22.1613ZM24.5181 30.0686L18.9691 24.5196L24.5181 18.9706L30.0671 24.5196L24.5181 30.0686Z" fill="white"/>
</mask>
<g mask="url(#mask5_12_93)">
<path d="M24.6114 30.1141L28.8714 34.3679L18.3705 44.1249L14.4866 40.2408L24.6114 30.1141Z" fill="url(#paint2_linear_12_93)" fill-opacity="0.8"/>
</g>
<mask id="mask6_12_93" style="mask-type:luminance" maskUnits="userSpaceOnUse" x="0" y="0" width="49" height="49">
<path d="M47.9625 22.1613L26.8764 1.0752C25.5724 -0.228811 23.4638 -0.228811 22.1598 1.0752L1.07369 22.1613C-0.230318 23.4653 -0.230318 25.5739 1.07369 26.8779L22.1598 47.964C23.4638 49.268 25.5724 49.268 26.8764 47.964L47.9625 26.8779C49.2665 25.5739 49.2665 23.4653 47.9625 22.1613ZM24.5181 30.0686L18.9691 24.5196L24.5181 18.9706L30.0671 24.5196L24.5181 30.0686Z" fill="white"/>
</mask>
<g mask="url(#mask6_12_93)">
<path d="M34.6429 8.8936L38.9029 13.1474L28.402 22.9044L24.5181 19.0203L34.6429 8.8936Z" fill="url(#paint3_linear_12_93)" fill-opacity="0.8"/>
</g>
</g>
<defs>
<linearGradient id="paint0_linear_12_93" x1="1294.62" y1="1306.8" x2="3694.54" y2="4070.59" gradientUnits="userSpaceOnUse">
<stop stop-color="#1A237E" stop-opacity="0.2"/>
<stop offset="1" stop-color="#1A237E" stop-opacity="0.02"/>
</linearGradient>
<linearGradient id="paint1_linear_12_93" x1="3020.52" y1="3020.51" x2="9525.05" y2="9525.04" gradientUnits="userSpaceOnUse">
<stop stop-color="white" stop-opacity="0.1"/>
<stop offset="1" stop-color="white" stop-opacity="0"/>
</linearGradient>
<linearGradient id="paint2_linear_12_93" x1="1530.65" y1="1140.91" x2="2150.48" y2="1755.94" gradientUnits="userSpaceOnUse">
<stop stop-opacity="0.2"/>
<stop offset="1" stop-color="#D8D8D8" stop-opacity="0"/>
</linearGradient>
<linearGradient id="paint3_linear_12_93" x1="1540.69" y1="1119.69" x2="2329.61" y2="1901.29" gradientUnits="userSpaceOnUse">
<stop stop-opacity="0.2"/>
<stop offset="1" stop-color="#D8D8D8" stop-opacity="0"/>
</linearGradient>
</defs>
</svg>
