<svg width="152" height="52" viewBox="0 0 152 52" fill="none" xmlns="http://www.w3.org/2000/svg">
<path d="M13.2993 19V7.96H1.15531V2.2H33.0753V7.96H20.8833V19H13.2993ZM34.9991 19V2.2H42.5831V19H34.9991ZM44.5147 19V2.2H54.6427L63.9787 13.72L73.3147 2.2H83.8267V19H76.2427V9.136L68.2507 19H59.7067L52.0987 9.616V19H44.5147ZM93.3253 12.76V14.68H109.021C109.693 14.68 110.077 14.32 110.077 13.72C110.077 13.12 109.693 12.76 109.021 12.76H93.3253ZM109.021 6.52H93.3253V8.44H109.021C109.693 8.44 110.077 8.08 110.077 7.48C110.077 6.88 109.693 6.52 109.021 6.52ZM111.661 19H85.7413V2.2H111.661C115.189 2.2 117.661 3.88 117.661 7C117.661 8.632 116.893 9.856 115.573 10.6C116.893 11.344 117.661 12.568 117.661 14.2C117.661 17.32 115.189 19 111.661 19ZM151.036 2.2V10.6C151.036 15.232 147.268 19.24 142.636 19.24H127.516C122.884 19.24 119.116 15.232 119.116 10.6V2.2H126.7V10.6C126.7 11.92 127.78 13 129.1 13H141.052C142.372 13 143.452 11.92 143.452 10.6V2.2H151.036Z" fill="#2972FF"/>
<path d="M117.199 38.76V45H94.3991C89.7671 45 85.9991 41.232 85.9991 36.6C85.9991 31.968 89.7671 28.2 94.3991 28.2H117.199V34.44H95.9591C94.6391 34.44 93.5591 35.28 93.5591 36.6C93.5591 37.92 94.6391 38.76 95.9591 38.76H117.199ZM124.114 37.8C120.85 37.8 118.882 35.88 118.882 33.12C118.882 30.36 120.85 28.2 124.114 28.2H150.082V33.96H127.258C126.682 33.96 126.466 34.392 126.466 34.68C126.466 34.968 126.682 35.4 127.258 35.4H145.81C149.074 35.4 151.042 37.32 151.042 40.08C151.042 42.84 149.074 45 145.81 45H119.842V39.24H142.666C143.242 39.24 143.458 38.808 143.458 38.52C143.458 38.232 143.242 37.8 142.666 37.8H124.114Z" fill="#00040D"/>
</svg>
